<svg version="1.1" viewBox="0.0 0.0 960.0 720.0" fill="none" stroke="none" stroke-linecap="square" stroke-miterlimit="10" xmlns:xlink="http://www.w3.org/1999/xlink" xmlns="http://www.w3.org/2000/svg"><clipPath id="p.0"><path d="m0 0l960.0 0l0 720.0l-960.0 0l0 -720.0z" clip-rule="nonzero"/></clipPath><g clip-path="url(#p.0)"><path fill="#000000" fill-opacity="0.0" d="m0 0l960.0 0l0 720.0l-960.0 0z" fill-rule="evenodd"/><path fill="#6d9eeb" d="m492.0735 267.3727c0.87490845 -0.04156494 3.4282532 -0.18722534 5.249359 -0.24935913c1.8210754 -0.06210327 3.835083 -0.1237793 5.6771545 -0.12335205c1.8420715 4.272461E-4 3.6045532 0.021881104 5.3753357 0.12597656c1.7707825 0.10412598 3.67453 0.24935913 5.249359 0.49868774c1.5747681 0.24935913 3.0830688 0.6229248 4.199463 0.9973755c1.116333 0.37445068 1.7489014 0.5826721 2.4986572 1.2493591c0.7498169 0.6666565 1.5831299 1.6670837 2.0 2.7506409c0.41693115 1.0835571 0.62646484 2.7091064 0.5013428 3.7506714c-0.12512207 1.0415344 -0.335083 1.7489014 -1.2519531 2.4986877c-0.91693115 0.74975586 -2.8744507 1.6246643 -4.2493896 2.0c-1.3748779 0.37530518 -1.9168701 0.20996094 -4.0 0.25195312c-2.0830994 0.041992188 -8.623779 -0.04156494 -8.498657 0c0.12509155 0.04156494 6.915985 -0.12554932 9.249329 0.24935913c2.333313 0.37487793 3.5839844 1.2082214 4.7506714 2.0c1.166626 0.79177856 1.9160156 1.6255493 2.2493286 2.7506409c0.333313 1.1251221 0.5839844 2.9169006 -0.24932861 4.0c-0.833374 1.0831299 -2.8338013 1.9155884 -4.7506714 2.4986877c-1.9168701 0.5831299 -4.6968384 0.7913513 -6.750641 1.0c-2.0538025 0.2086792 -3.4973755 0.20999146 -5.572174 0.25198364c-2.074829 0.041992188 -4.793091 0.06210327 -6.876648 0c-2.0835571 -0.06213379 -4.6872253 -0.3106079 -5.624695 -0.37271118" fill-rule="evenodd"/><path stroke="#000000" stroke-width="8.0" stroke-linejoin="round" stroke-linecap="butt" d="m492.0735 267.3727c0.87490845 -0.04156494 3.4282532 -0.18722534 5.249359 -0.24935913c1.8210754 -0.06210327 3.835083 -0.1237793 5.6771545 -0.12335205c1.8420715 4.272461E-4 3.6045532 0.021881104 5.3753357 0.12597656c1.7707825 0.10412598 3.67453 0.24935913 5.249359 0.49868774c1.5747681 0.24935913 3.0830688 0.6229248 4.199463 0.9973755c1.116333 0.37445068 1.7489014 0.5826721 2.4986572 1.2493591c0.7498169 0.6666565 1.5831299 1.6670837 2.0 2.7506409c0.41693115 1.0835571 0.62646484 2.7091064 0.5013428 3.7506714c-0.12512207 1.0415344 -0.335083 1.7489014 -1.2519531 2.4986877c-0.91693115 0.74975586 -2.8744507 1.6246643 -4.2493896 2.0c-1.3748779 0.37530518 -1.9168701 0.20996094 -4.0 0.25195312c-2.0830994 0.041992188 -8.623779 -0.04156494 -8.498657 0c0.12509155 0.04156494 6.915985 -0.12554932 9.249329 0.24935913c2.333313 0.37487793 3.5839844 1.2082214 4.7506714 2.0c1.166626 0.79177856 1.9160156 1.6255493 2.2493286 2.7506409c0.333313 1.1251221 0.5839844 2.9169006 -0.24932861 4.0c-0.833374 1.0831299 -2.8338013 1.9155884 -4.7506714 2.4986877c-1.9168701 0.5831299 -4.6968384 0.7913513 -6.750641 1.0c-2.0538025 0.2086792 -3.4973755 0.20999146 -5.572174 0.25198364c-2.074829 0.041992188 -4.793091 0.06210327 -6.876648 0c-2.0835571 -0.06213379 -4.6872253 -0.3106079 -5.624695 -0.37271118" fill-rule="evenodd"/><path fill="#cfe2f3" d="m312.50226 348.62595c-1.1579285 0.54241943 -0.221344 3.1268616 -0.12597656 4.5013123c0.09536743 1.3744507 0.45669556 2.412506 0.69815063 3.7453918c0.2414856 1.3328857 0.45056152 2.918213 0.7506714 4.2519836c0.30007935 1.3337708 0.5918579 2.0008545 1.0498657 3.7506409c0.4580078 1.7497864 1.0730591 4.685486 1.6981506 6.748047c0.6251221 2.0625305 1.4689331 4.0437317 2.0524902 5.627289c0.5835571 1.5835571 0.8324585 2.4370117 1.448822 3.8740234c0.6163635 1.4370117 1.4575806 3.123352 2.2493591 4.7480164c0.79177856 1.6246643 1.7095337 3.4164429 2.5013123 5.0c0.79177856 1.5835571 1.2493286 2.7926636 2.2493286 4.5013123c1.0 1.7086792 2.5962524 4.062561 3.7506714 5.7506714c1.154419 1.6880798 2.209076 3.044159 3.1758423 4.3779297c0.96676636 1.3337708 1.6539917 2.3963318 2.6246643 3.6246948c0.9707031 1.2283325 2.0328064 2.454071 3.1994934 3.7453918c1.1666565 1.2913513 2.5004272 2.793518 3.8005066 4.0026245c1.3001099 1.2091064 2.8836365 2.3770752 4.0 3.2519836c1.1163635 0.8748779 1.4566956 1.1229248 2.6981812 1.9973755c1.2414551 0.8744507 3.209076 2.2913208 4.750641 3.2493286c1.541565 0.9580078 2.8858337 1.727478 4.4986877 2.4986877c1.612854 0.7712097 3.6364746 1.5450745 5.178467 2.128601c1.5420227 0.5835571 2.6863708 0.89416504 4.073517 1.3727112c1.3871155 0.47857666 2.9995422 1.0822449 4.2493286 1.4986877c1.2497864 0.41644287 1.7615967 0.64523315 3.2493591 1.0c1.4877319 0.35476685 3.968933 0.8368225 5.6771545 1.1286011c1.7082214 0.29177856 2.8429565 0.41384888 4.572174 0.6220703c1.7292175 0.20822144 3.9400635 0.46017456 5.8031616 0.6272888c1.8630676 0.16711426 3.4794312 0.31277466 5.375305 0.3753357c1.8959045 0.06253052 4.062561 0.10409546 6.0 0c1.9374695 -0.10412598 3.8329163 -0.4164734 5.624695 -0.6246948c1.7917786 -0.20822144 3.45932 -0.35388184 5.1259766 -0.6246643c1.6666565 -0.27078247 3.2283325 -0.6456604 4.8740234 -1.0c1.6456604 -0.3543396 3.458435 -0.75109863 5.0 -1.1259766c1.5415344 -0.37490845 2.67453 -0.6439209 4.2493286 -1.123352c1.5747986 -0.47946167 3.2082214 -0.9610901 5.1994934 -1.7532959c1.9912415 -0.7922058 4.885376 -2.1045532 6.7480164 -3.0c1.8626404 -0.8954468 3.0524902 -1.5809326 4.427826 -2.3727112c1.3753357 -0.79177856 2.2615967 -1.3363953 3.8241577 -2.3779297c1.5625305 -1.041565 3.9177551 -2.6426086 5.551178 -3.871399c1.6334229 -1.2287903 2.8328857 -2.2510986 4.2493286 -3.5013123c1.4164429 -1.2502136 2.9785767 -2.7502136 4.249359 -4.0c1.2707825 -1.2497864 2.2502136 -2.3320312 3.3753052 -3.4986877c1.1251221 -1.1666565 2.3333435 -2.3136597 3.3753357 -3.5013123c1.0419922 -1.1876526 1.8972168 -2.3333435 2.876648 -3.6246643c0.97943115 -1.2913513 1.9881897 -2.6229248 3.0 -4.1233826c1.0118103 -1.5004272 1.9877625 -2.8372498 3.0708618 -4.879242c1.0831299 -2.0419922 2.4693909 -4.872711 3.427826 -7.372711c0.95843506 -2.5 1.6439209 -5.0227356 2.3228455 -7.627289c0.67889404 -2.6045532 1.2090759 -5.4169006 1.7506409 -8.0c0.54156494 -2.58313 1.0822449 -5.12381 1.4986877 -7.4986877c0.41644287 -2.3749084 0.6246643 -3.7086792 1.0 -6.7506714c0.3753357 -3.0419922 0.91864014 -7.7510986 1.2519836 -11.501312c0.333313 -3.7502136 0.5397949 -7.7917786 0.74801636 -11.0c0.20822144 -3.2082214 0.3762207 -5.6662292 0.50131226 -8.249329c0.12512207 -2.58313 0.1574707 -4.4164734 0.24935913 -7.249359c0.09185791 -2.8328857 0.2602539 -6.956238 0.30181885 -9.748016c0.04156494 -2.7917786 -0.04373169 -4.5857544 -0.052490234 -7.0026245c-0.008758545 -2.4169006 0 -4.8320312 0 -7.4986877c0 -2.666687 0 -5.7095337 0 -8.501312c0 -2.7917786 0.04156494 -5.5827026 0 -8.249359c-0.04156494 -2.6666565 -0.08267212 -4.875763 -0.24932861 -7.750641c-0.16668701 -2.8749084 -0.37576294 -6.4986877 -0.7506714 -9.498688c-0.37487793 -3.0000153 -0.82022095 -6.1474304 -1.4986877 -8.5013275c-0.6784668 -2.3538818 -1.5599365 -3.9768066 -2.572174 -5.62204c-1.0122375 -1.6452332 -2.2926636 -3.061676 -3.5013123 -4.249344c-1.2086487 -1.1876678 -2.6465454 -2.1058655 -3.7506714 -2.876648c-1.1040955 -0.7707672 -1.719574 -1.1644745 -2.873993 -1.7480316c-1.154419 -0.58354187 -2.63562 -1.2532806 -4.05249 -1.7532806c-1.4169006 -0.5 -2.8237305 -0.9549408 -4.448822 -1.2467194c-1.6251221 -0.29177856 -3.460205 -0.46150208 -5.3018494 -0.50393677c-1.8416443 -0.042434692 -3.623352 -8.69751E-4 -5.7480164 0.24934387c-2.1246948 0.25022888 -5.124695 0.835083 -7.0 1.2519684c-1.8753357 0.41688538 -2.7519836 0.49957275 -4.2519836 1.2493439c-1.5 0.7497864 -3.4649963 2.1863556 -4.7480164 3.2493439c-1.2830505 1.0630035 -2.074829 1.9619446 -2.9501343 3.1286163c-0.8753357 1.1666565 -1.5848694 2.4343872 -2.3018494 3.8713837c-0.71698 1.4370117 -1.3333435 2.917328 -2.0 4.750656c-0.6666565 1.8333435 -1.5835571 4.4575653 -2.0 6.249344c-0.41644287 1.7917938 -0.24890137 2.5013275 -0.49868774 4.5013275c-0.24978638 2.0 -0.70822144 5.04068 -1.0 7.4986877c-0.29177856 2.4580078 -0.41732788 4.2077637 -0.75064087 7.2493286c-0.3333435 3.041565 -0.92477417 7.5201416 -1.2493591 11.0c-0.32458496 3.479889 -0.40637207 6.9208374 -0.69815063 9.879272c-0.29177856 2.958435 -0.58529663 5.309265 -1.0524902 7.871399c-0.4671936 2.5621033 -1.0840149 5.0428467 -1.7506714 7.5013123c-0.6666565 2.458435 -1.4873047 5.019684 -2.2493286 7.2493286c-0.76205444 2.2296753 -1.269043 3.9825134 -2.3228455 6.128601c-1.0538025 2.1461182 -2.7917786 4.9982605 -4.0 6.748047c-1.2082214 1.7497864 -1.8950195 2.479889 -3.2493591 3.7506409c-1.3543091 1.2707825 -2.8053284 2.6452332 -4.8766174 3.8740234c-2.0713196 1.2287903 -4.9055176 2.4566956 -7.551178 3.4986877c-2.645691 1.0419922 -5.5192566 1.9405212 -8.322845 2.753296c-2.8035889 0.81277466 -5.5402527 1.4566956 -8.498688 2.123352c-2.958435 0.6666565 -6.6474304 1.3971863 -9.251984 1.876648c-2.6045227 0.47943115 -4.0839844 0.6876526 -6.375305 1.0c-2.2913513 0.3123169 -4.7392883 0.6246643 -7.372711 0.8739929c-2.6334229 0.24935913 -5.5231934 0.47683716 -8.427826 0.6220703c-2.9046326 0.14523315 -6.2082214 0.24932861 -9.0 0.24932861c-2.7917786 0 -4.8337708 -0.12466431 -7.750641 -0.24932861c-2.9169006 -0.124694824 -7.084015 -0.20690918 -9.750671 -0.49868774c-2.6666565 -0.29177856 -4.070862 -0.8355408 -6.2493286 -1.2519836c-2.1784973 -0.41644287 -5.6636047 -1.789154 -6.821533 -1.2467041z" fill-rule="evenodd"/><path stroke="#000000" stroke-width="12.0" stroke-linejoin="round" stroke-linecap="butt" d="m312.50226 348.62595c-1.1579285 0.54241943 -0.221344 3.1268616 -0.12597656 4.5013123c0.09536743 1.3744507 0.45669556 2.412506 0.69815063 3.7453918c0.2414856 1.3328857 0.45056152 2.918213 0.7506714 4.2519836c0.30007935 1.3337708 0.5918579 2.0008545 1.0498657 3.7506409c0.4580078 1.7497864 1.0730591 4.685486 1.6981506 6.748047c0.6251221 2.0625305 1.4689331 4.0437317 2.0524902 5.627289c0.5835571 1.5835571 0.8324585 2.4370117 1.448822 3.8740234c0.6163635 1.4370117 1.4575806 3.123352 2.2493591 4.7480164c0.79177856 1.6246643 1.7095337 3.4164429 2.5013123 5.0c0.79177856 1.5835571 1.2493286 2.7926636 2.2493286 4.5013123c1.0 1.7086792 2.5962524 4.062561 3.7506714 5.7506714c1.154419 1.6880798 2.209076 3.044159 3.1758423 4.3779297c0.96676636 1.3337708 1.6539917 2.3963318 2.6246643 3.6246948c0.9707031 1.2283325 2.0328064 2.454071 3.1994934 3.7453918c1.1666565 1.2913513 2.5004272 2.793518 3.8005066 4.0026245c1.3001099 1.2091064 2.8836365 2.3770752 4.0 3.2519836c1.1163635 0.8748779 1.4566956 1.1229248 2.6981812 1.9973755c1.2414551 0.8744507 3.209076 2.2913208 4.750641 3.2493286c1.541565 0.9580078 2.8858337 1.727478 4.4986877 2.4986877c1.612854 0.7712097 3.6364746 1.5450745 5.178467 2.128601c1.5420227 0.5835571 2.6863708 0.89416504 4.073517 1.3727112c1.3871155 0.47857666 2.9995422 1.0822449 4.2493286 1.4986877c1.2497864 0.41644287 1.7615967 0.64523315 3.2493591 1.0c1.4877319 0.35476685 3.968933 0.8368225 5.6771545 1.1286011c1.7082214 0.29177856 2.8429565 0.41384888 4.572174 0.6220703c1.7292175 0.20822144 3.9400635 0.46017456 5.8031616 0.6272888c1.8630676 0.16711426 3.4794312 0.31277466 5.375305 0.3753357c1.8959045 0.06253052 4.062561 0.10409546 6.0 0c1.9374695 -0.10412598 3.8329163 -0.4164734 5.624695 -0.6246948c1.7917786 -0.20822144 3.45932 -0.35388184 5.1259766 -0.6246643c1.6666565 -0.27078247 3.2283325 -0.6456604 4.8740234 -1.0c1.6456604 -0.3543396 3.458435 -0.75109863 5.0 -1.1259766c1.5415344 -0.37490845 2.67453 -0.6439209 4.2493286 -1.123352c1.5747986 -0.47946167 3.2082214 -0.9610901 5.1994934 -1.7532959c1.9912415 -0.7922058 4.885376 -2.1045532 6.7480164 -3.0c1.8626404 -0.8954468 3.0524902 -1.5809326 4.427826 -2.3727112c1.3753357 -0.79177856 2.2615967 -1.3363953 3.8241577 -2.3779297c1.5625305 -1.041565 3.9177551 -2.6426086 5.551178 -3.871399c1.6334229 -1.2287903 2.8328857 -2.2510986 4.2493286 -3.5013123c1.4164429 -1.2502136 2.9785767 -2.7502136 4.249359 -4.0c1.2707825 -1.2497864 2.2502136 -2.3320312 3.3753052 -3.4986877c1.1251221 -1.1666565 2.3333435 -2.3136597 3.3753357 -3.5013123c1.0419922 -1.1876526 1.8972168 -2.3333435 2.876648 -3.6246643c0.97943115 -1.2913513 1.9881897 -2.6229248 3.0 -4.1233826c1.0118103 -1.5004272 1.9877625 -2.8372498 3.0708618 -4.879242c1.0831299 -2.0419922 2.4693909 -4.872711 3.427826 -7.372711c0.95843506 -2.5 1.6439209 -5.0227356 2.3228455 -7.627289c0.67889404 -2.6045532 1.2090759 -5.4169006 1.7506409 -8.0c0.54156494 -2.58313 1.0822449 -5.12381 1.4986877 -7.4986877c0.41644287 -2.3749084 0.6246643 -3.7086792 1.0 -6.7506714c0.3753357 -3.0419922 0.91864014 -7.7510986 1.2519836 -11.501312c0.333313 -3.7502136 0.5397949 -7.7917786 0.74801636 -11.0c0.20822144 -3.2082214 0.3762207 -5.6662292 0.50131226 -8.249329c0.12512207 -2.58313 0.1574707 -4.4164734 0.24935913 -7.249359c0.09185791 -2.8328857 0.2602539 -6.956238 0.30181885 -9.748016c0.04156494 -2.7917786 -0.04373169 -4.5857544 -0.052490234 -7.0026245c-0.008758545 -2.4169006 0 -4.8320312 0 -7.4986877c0 -2.666687 0 -5.7095337 0 -8.501312c0 -2.7917786 0.04156494 -5.5827026 0 -8.249359c-0.04156494 -2.6666565 -0.08267212 -4.875763 -0.24932861 -7.750641c-0.16668701 -2.8749084 -0.37576294 -6.4986877 -0.7506714 -9.498688c-0.37487793 -3.0000153 -0.82022095 -6.1474304 -1.4986877 -8.5013275c-0.6784668 -2.3538818 -1.5599365 -3.9768066 -2.572174 -5.62204c-1.0122375 -1.6452332 -2.2926636 -3.061676 -3.5013123 -4.249344c-1.2086487 -1.1876678 -2.6465454 -2.1058655 -3.7506714 -2.876648c-1.1040955 -0.7707672 -1.719574 -1.1644745 -2.873993 -1.7480316c-1.154419 -0.58354187 -2.63562 -1.2532806 -4.05249 -1.7532806c-1.4169006 -0.5 -2.8237305 -0.9549408 -4.448822 -1.2467194c-1.6251221 -0.29177856 -3.460205 -0.46150208 -5.3018494 -0.50393677c-1.8416443 -0.042434692 -3.623352 -8.69751E-4 -5.7480164 0.24934387c-2.1246948 0.25022888 -5.124695 0.835083 -7.0 1.2519684c-1.8753357 0.41688538 -2.7519836 0.49957275 -4.2519836 1.2493439c-1.5 0.7497864 -3.4649963 2.1863556 -4.7480164 3.2493439c-1.2830505 1.0630035 -2.074829 1.9619446 -2.9501343 3.1286163c-0.8753357 1.1666565 -1.5848694 2.4343872 -2.3018494 3.8713837c-0.71698 1.4370117 -1.3333435 2.917328 -2.0 4.750656c-0.6666565 1.8333435 -1.5835571 4.4575653 -2.0 6.249344c-0.41644287 1.7917938 -0.24890137 2.5013275 -0.49868774 4.5013275c-0.24978638 2.0 -0.70822144 5.04068 -1.0 7.4986877c-0.29177856 2.4580078 -0.41732788 4.2077637 -0.75064087 7.2493286c-0.3333435 3.041565 -0.92477417 7.5201416 -1.2493591 11.0c-0.32458496 3.479889 -0.40637207 6.9208374 -0.69815063 9.879272c-0.29177856 2.958435 -0.58529663 5.309265 -1.0524902 7.871399c-0.4671936 2.5621033 -1.0840149 5.0428467 -1.7506714 7.5013123c-0.6666565 2.458435 -1.4873047 5.019684 -2.2493286 7.2493286c-0.76205444 2.2296753 -1.269043 3.9825134 -2.3228455 6.128601c-1.0538025 2.1461182 -2.7917786 4.9982605 -4.0 6.748047c-1.2082214 1.7497864 -1.8950195 2.479889 -3.2493591 3.7506409c-1.3543091 1.2707825 -2.8053284 2.6452332 -4.8766174 3.8740234c-2.0713196 1.2287903 -4.9055176 2.4566956 -7.551178 3.4986877c-2.645691 1.0419922 -5.5192566 1.9405212 -8.322845 2.753296c-2.8035889 0.81277466 -5.5402527 1.4566956 -8.498688 2.123352c-2.958435 0.6666565 -6.6474304 1.3971863 -9.251984 1.876648c-2.6045227 0.47943115 -4.0839844 0.6876526 -6.375305 1.0c-2.2913513 0.3123169 -4.7392883 0.6246643 -7.372711 0.8739929c-2.6334229 0.24935913 -5.5231934 0.47683716 -8.427826 0.6220703c-2.9046326 0.14523315 -6.2082214 0.24932861 -9.0 0.24932861c-2.7917786 0 -4.8337708 -0.12466431 -7.750641 -0.24932861c-2.9169006 -0.124694824 -7.084015 -0.20690918 -9.750671 -0.49868774c-2.6666565 -0.29177856 -4.070862 -0.8355408 -6.2493286 -1.2519836c-2.1784973 -0.41644287 -5.6636047 -1.789154 -6.821533 -1.2467041z" fill-rule="evenodd"/><path fill="#cfe2f3" d="m372.19882 394.70078c-0.6583557 0.7581177 -2.200348 2.8399048 -3.9501343 4.5485535c-1.7497864 1.7086792 -5.840332 4.3075256 -6.5485535 5.70343c-0.70822144 1.395874 0.999115 1.830719 2.2991943 2.6719055c1.3001099 0.84121704 3.6264343 1.6876831 5.5013123 2.3753357c1.8749084 0.6876526 3.3731384 1.1881104 5.748047 1.7506714c2.374878 0.5625305 5.45932 1.1872253 8.501312 1.6246643c3.0419922 0.43743896 6.500885 0.8748779 9.750641 1.0c3.2497864 0.12509155 6.2147827 -0.012268066 9.748047 -0.24935913c3.5332336 -0.23709106 7.5844116 -0.47769165 11.451447 -1.1732178c3.8670044 -0.6955261 7.9505615 -1.6955261 11.750641 -3.0c3.8001099 -1.3044739 7.80011 -3.0350037 11.049866 -4.826782c3.2497864 -1.7917786 6.165802 -4.061676 8.448822 -5.923889c2.28302 -1.8621826 4.3744507 -4.3744507 5.249359 -5.2493286" fill-rule="evenodd"/><path stroke="#000000" stroke-width="12.0" stroke-linejoin="round" stroke-linecap="butt" d="m372.19882 394.70078c-0.6583557 0.7581177 -2.200348 2.8399048 -3.9501343 4.5485535c-1.7497864 1.7086792 -5.840332 4.3075256 -6.5485535 5.70343c-0.70822144 1.395874 0.999115 1.830719 2.2991943 2.6719055c1.3001099 0.84121704 3.6264343 1.6876831 5.5013123 2.3753357c1.8749084 0.6876526 3.3731384 1.1881104 5.748047 1.7506714c2.374878 0.5625305 5.45932 1.1872253 8.501312 1.6246643c3.0419922 0.43743896 6.500885 0.8748779 9.750641 1.0c3.2497864 0.12509155 6.2147827 -0.012268066 9.748047 -0.24935913c3.5332336 -0.23709106 7.5844116 -0.47769165 11.451447 -1.1732178c3.8670044 -0.6955261 7.9505615 -1.6955261 11.750641 -3.0c3.8001099 -1.3044739 7.80011 -3.0350037 11.049866 -4.826782c3.2497864 -1.7917786 6.165802 -4.061676 8.448822 -5.923889c2.28302 -1.8621826 4.3744507 -4.3744507 5.249359 -5.2493286" fill-rule="evenodd"/><path fill="#000000" d="m459.74802 258.96588l0 0c0 -4.627014 3.638153 -8.37796 8.126007 -8.37796l0 0c2.1551514 0 4.2220154 0.8826752 5.745941 2.4538574c1.5238953 1.571167 2.3800354 3.702118 2.3800354 5.924103l0 0c0 4.627014 -3.6381226 8.37796 -8.125977 8.37796l0 0c-4.487854 0 -8.126007 -3.750946 -8.126007 -8.37796z" fill-rule="evenodd"/><path stroke="#000000" stroke-width="1.0" stroke-linejoin="round" stroke-linecap="butt" d="m459.74802 258.96588l0 0c0 -4.627014 3.638153 -8.37796 8.126007 -8.37796l0 0c2.1551514 0 4.2220154 0.8826752 5.745941 2.4538574c1.5238953 1.571167 2.3800354 3.702118 2.3800354 5.924103l0 0c0 4.627014 -3.6381226 8.37796 -8.125977 8.37796l0 0c-4.487854 0 -8.126007 -3.750946 -8.126007 -8.37796z" fill-rule="evenodd"/></g></svg>